<svg version="1.1" id="Layer_1" xmlns="http://www.w3.org/2000/svg" xmlns:xlink="http://www.w3.org/1999/xlink" x="0px" y="0px"
	 width="100%" viewBox="0 0 500 500" enable-background="new 0 0 500 500" xml:space="preserve">
<path fill="#E81F67" opacity="1.000000" stroke="none" 
	d="
M225.000000,501.000000 
	C150.000015,501.000000 75.500038,501.000000 1.000040,501.000000 
	C1.000027,334.333405 1.000027,167.666779 1.000013,1.000129 
	C167.666565,1.000086 334.333130,1.000086 500.999756,1.000043 
	C500.999847,167.666534 500.999847,334.333069 500.999939,500.999817 
	C409.166656,501.000000 317.333344,501.000000 225.000000,501.000000 
M46.993431,255.543961 
	C50.113064,257.084229 53.099857,259.031006 56.373260,260.100769 
	C83.484436,268.960693 110.035263,252.233185 113.362518,223.923615 
	C115.448006,206.179428 108.177811,192.125626 93.380203,182.758316 
	C78.095078,173.082413 61.828377,173.311172 46.757236,183.274261 
	C21.433092,200.015320 20.578522,237.437119 46.993431,255.543961 
M143.760315,240.522934 
	C143.760315,238.588989 143.760315,236.655029 143.760315,235.098328 
	C151.298157,232.881180 155.824753,235.000473 158.662842,241.734528 
	C160.651108,246.452179 163.629120,250.774719 166.392090,255.129715 
	C167.165054,256.348022 168.713974,257.822632 169.956924,257.870087 
	C176.890823,258.134827 183.840073,257.997284 192.698822,257.997284 
	C186.527161,247.825897 181.074692,238.839783 175.549118,229.733200 
	C176.817932,228.547211 177.958054,227.596542 178.965530,226.521561 
	C186.692764,218.276505 188.860519,208.537109 185.950882,197.820450 
	C183.077698,187.238083 176.011002,179.679337 165.195557,178.724899 
	C151.386627,177.506287 137.388733,178.429352 123.319290,178.429352 
	C123.319290,204.776657 123.319290,231.181015 123.319290,257.701752 
	C130.167923,257.701752 136.732956,257.701752 143.760254,257.701752 
	C143.760254,252.112640 143.760254,246.814011 143.760315,240.522934 
M332.662170,177.285294 
	C332.094879,178.953522 331.041199,180.619537 331.033569,182.290314 
	C330.925964,205.951996 330.956665,229.614304 330.969177,253.276474 
	C330.969940,254.723679 331.098663,256.170837 331.172821,257.721741 
	C338.256470,257.721741 344.994904,257.721741 352.284943,257.721741 
	C352.284943,244.932770 352.284943,232.412796 352.284943,219.003983 
	C354.232513,220.786469 355.459351,221.849213 356.619446,222.980453 
	C367.356445,233.450592 378.221130,243.795807 388.729462,254.490997 
	C392.063202,257.883972 395.404114,258.766327 399.729614,257.706116 
	C399.729614,231.030685 399.729614,204.610397 399.729614,178.097855 
	C392.745331,178.097855 386.036865,178.097855 378.903259,178.097855 
	C378.903259,190.846054 378.903259,203.242142 378.903259,216.519318 
	C377.052917,214.877716 375.821106,213.872009 374.687561,212.765656 
	C363.716675,202.057755 352.694733,191.400528 341.854980,180.561203 
	C339.419922,178.126236 336.962250,176.703308 332.662170,177.285294 
M307.270325,225.156342 
	C300.368774,210.208984 293.380341,195.300629 286.640015,180.280914 
	C285.315247,177.328903 283.603729,176.466492 280.559540,176.615799 
	C277.788300,176.751740 275.724182,176.772064 274.271362,179.982101 
	C263.368805,204.071686 252.198685,228.040054 241.180328,252.077560 
	C240.410782,253.756424 240.186386,255.685165 239.574631,258.005280 
	C244.498138,258.005280 248.693466,257.600037 252.776306,258.104767 
	C258.248230,258.781219 261.692963,257.106323 262.985291,251.590759 
	C263.736633,248.384155 265.931793,247.810303 268.966583,247.895660 
	C276.289429,248.101578 283.638947,248.261398 290.944153,247.847672 
	C295.173401,247.608170 297.225708,249.184448 298.703796,252.894073 
	C299.468384,254.812866 301.182770,257.620331 302.677765,257.758545 
	C308.704132,258.315796 314.812256,257.989441 322.324615,257.989441 
	C317.101257,246.543716 312.371338,236.179199 307.270325,225.156342 
M447.590820,239.791946 
	C439.553589,239.783249 438.617065,237.846024 441.175323,225.730347 
	C449.783478,225.730347 458.522980,225.730347 467.366882,225.730347 
	C467.366882,219.325378 467.366882,213.478271 467.366882,207.081848 
	C458.195190,207.081848 449.447083,207.081848 440.615814,207.081848 
	C440.615814,203.224960 440.615814,199.932220 440.615814,195.945465 
	C450.516724,195.945465 460.220673,195.945465 469.703857,195.945465 
	C469.703857,189.492920 469.703857,183.740097 469.703857,178.139954 
	C452.965759,178.139954 436.592834,178.139954 420.278229,178.139954 
	C420.278229,204.922272 420.278229,231.301620 420.278229,257.689728 
	C437.320068,257.689728 454.040222,257.689728 470.772766,257.689728 
	C470.772766,251.636368 470.772766,245.900314 470.772766,239.791946 
	C463.164429,239.791946 455.869385,239.791946 447.590820,239.791946 
M206.410950,232.456604 
	C206.410950,234.874435 206.410950,237.292267 206.410950,240.220825 
	C202.581543,240.220825 199.511551,240.220825 196.455444,240.220825 
	C196.455444,246.353973 196.455444,251.940155 196.455444,257.640076 
	C210.092163,257.640076 223.446426,257.640076 236.779083,257.640076 
	C236.779083,251.667358 236.779083,246.064865 236.779083,239.974243 
	C233.489700,239.974243 230.421844,239.974243 227.329559,239.974243 
	C227.329559,224.970901 227.329559,210.465759 227.329559,195.597534 
	C230.362152,195.597534 232.977905,195.597534 235.891174,195.597534 
	C235.891174,189.521713 235.891174,183.815903 235.891174,178.036591 
	C222.834824,178.036591 210.087891,178.036591 197.288132,178.036591 
	C197.288132,183.947815 197.288132,189.549744 197.288132,195.424057 
	C200.382782,195.665161 203.260773,195.889389 206.410995,196.134827 
	C206.410995,208.198318 206.410995,219.833847 206.410950,232.456604 
M75.518761,296.846893 
	C74.903053,297.538269 74.287354,298.229614 73.588745,299.014099 
	C71.400787,295.927155 69.396736,293.099701 67.392693,290.272217 
	C67.009476,290.507080 66.626266,290.741943 66.243050,290.976807 
	C66.243050,296.266296 66.243050,301.555756 66.243050,306.845215 
	C66.792137,306.900421 67.341232,306.955627 67.890320,307.010864 
	C68.339638,304.497192 68.788963,301.983551 69.314728,299.042267 
	C70.855156,300.838074 72.179962,302.382538 73.768288,304.234192 
	C75.512482,302.160614 76.912010,300.496765 78.542145,298.558777 
	C78.904938,301.731354 79.202538,304.333832 79.500130,306.936310 
	C80.156837,306.910522 80.813538,306.884766 81.470238,306.859009 
	C82.507736,301.654480 82.003723,296.374115 81.711189,291.104126 
	C81.194458,290.848907 80.677719,290.593658 80.160988,290.338440 
	C78.740303,292.300964 77.319618,294.263489 75.518761,296.846893 
M423.436859,304.993134 
	C425.328522,300.331146 424.532043,298.735840 419.771423,297.702271 
	C417.435913,297.195160 415.093536,296.719818 412.241089,296.122650 
	C416.378998,290.215576 420.247803,296.038116 424.063263,294.005188 
	C421.661072,292.181702 419.059326,290.550140 416.351837,290.350128 
	C413.184326,290.116180 409.570374,291.277405 409.382080,295.212921 
	C409.194427,299.135498 412.711121,299.513123 415.731415,300.046631 
	C417.602539,300.377167 419.420502,301.008698 421.914642,301.680969 
	C417.066315,306.921204 413.212006,302.304565 408.977631,301.604767 
	C411.551971,307.711060 416.298859,308.771973 423.436859,304.993134 
M403.169434,301.039154 
	C403.001221,304.335968 399.461792,305.474854 395.919861,303.372681 
	C394.842285,302.733124 393.763245,302.096039 391.944061,301.019379 
	C393.359558,306.414032 396.378448,308.272339 401.695099,306.915466 
	C403.806793,306.376495 406.487701,304.225708 407.041626,302.277618 
	C408.000763,298.904663 404.810577,298.106049 402.069183,297.590363 
	C399.882629,297.179077 397.715881,296.662476 394.853424,296.044250 
	C399.247131,290.803864 402.799774,295.153198 406.831421,295.277527 
	C405.834229,291.158081 402.822937,290.045349 400.057098,290.380798 
	C397.387177,290.704590 394.908356,292.604248 392.345612,293.811676 
	C393.279358,295.634979 393.765961,298.197083 395.257050,299.099518 
	C397.240021,300.299652 400.005585,300.206635 403.169434,301.039154 
M353.131287,291.982483 
	C350.769409,291.420013 348.164917,289.970276 346.110443,290.532043 
	C343.825500,291.156830 340.729797,293.348419 340.328094,295.332062 
	C339.614929,298.853394 343.213531,299.465332 346.054108,299.997437 
	C348.029846,300.367523 349.990173,300.819885 352.855164,301.425140 
	C348.023254,306.679840 344.238159,302.928131 340.397675,301.496429 
	C340.975464,306.262817 344.458435,308.393799 349.932251,306.880005 
	C351.997589,306.308838 353.511993,303.745667 355.277527,302.090546 
	C353.617432,300.609131 352.162567,298.714203 350.240631,297.760468 
	C348.244720,296.770081 345.796936,296.690338 342.851685,296.064667 
	C346.933777,292.584351 347.166870,292.595673 351.495605,294.576538 
	C352.273132,294.932343 353.233521,294.888550 354.109497,295.029266 
	C353.966492,294.160126 353.823486,293.290955 353.131287,291.982483 
M241.311340,298.193237 
	C244.892578,299.319427 248.473816,300.445648 252.549728,301.727417 
	C247.914642,306.980408 244.094894,302.395081 240.051773,301.516083 
	C241.452194,306.633575 246.117172,308.808197 251.174194,306.668152 
	C252.914932,305.931488 254.712799,303.596344 254.984344,301.768524 
	C255.148438,300.664093 252.640701,298.649078 250.953690,297.909668 
	C248.704941,296.924072 246.087051,296.780701 243.061783,296.159302 
	C247.012756,290.492157 250.820633,295.354584 254.419647,295.193268 
	C252.856583,290.815521 249.174469,289.184021 244.562897,290.701782 
	C241.223175,291.800964 238.779709,293.542664 241.311340,298.193237 
M369.075012,301.623047 
	C365.665222,308.468201 361.486542,301.327698 357.168457,302.080811 
	C358.923279,307.328705 362.983154,307.803955 366.789734,306.921906 
	C369.064575,306.394806 372.060883,304.194794 372.625092,302.161804 
	C373.536957,298.876251 370.191254,298.089722 367.458282,297.578674 
	C365.263824,297.168335 363.089508,296.650238 360.068298,295.999420 
	C364.675262,291.104797 368.209473,294.717896 371.840881,295.398926 
	C370.465759,290.615417 365.203125,288.636932 360.737335,291.255493 
	C359.302002,292.097137 357.903687,294.255402 357.875732,295.835846 
	C357.854492,297.038025 359.818695,298.780914 361.272919,299.386444 
	C363.518280,300.321381 366.082764,300.489838 369.075012,301.623047 
M315.407318,300.822937 
	C317.899933,298.806671 319.127106,296.171814 317.075653,293.479584 
	C313.694580,289.042450 308.828430,290.687164 303.856445,290.677612 
	C304.006592,296.428833 302.836548,301.778473 304.552521,306.917969 
	C305.035126,306.944183 305.517731,306.970398 306.000336,306.996613 
	C306.481476,305.372681 306.962646,303.748749 307.803375,300.911316 
	C311.032135,303.076508 313.936188,305.023987 316.840240,306.971436 
	C317.128235,306.675354 317.416229,306.379303 317.704224,306.083221 
	C316.781372,304.516968 315.858551,302.950714 315.407318,300.822937 
M211.278244,306.882507 
	C211.124344,305.040039 210.970428,303.197571 210.747055,300.523438 
	C210.247116,301.070129 210.555801,300.691315 210.906128,300.355988 
	C213.710526,297.671936 214.189697,293.938416 210.925537,292.444641 
	C207.554413,290.901886 203.163849,291.586792 199.219269,291.297180 
	C199.219269,296.470367 199.219269,301.643585 199.219269,306.816772 
	C199.754608,306.889984 200.289948,306.963226 200.825287,307.036438 
	C201.405045,305.348206 201.984818,303.659973 203.023346,300.635834 
	C205.811920,302.895020 208.200851,304.830414 211.278244,306.882507 
M298.326904,304.784912 
	C298.701019,302.514069 299.075134,300.243225 299.565979,297.263947 
	C296.093689,297.603302 293.734619,297.833832 291.375549,298.064392 
	C291.388367,298.515991 291.401184,298.967560 291.414032,299.419159 
	C292.988098,299.896576 294.562195,300.373993 296.293457,300.899078 
	C295.259003,304.965637 292.130859,305.292267 290.203186,303.652313 
	C288.511963,302.213501 287.319031,298.719757 287.850189,296.627197 
	C288.238281,295.098236 291.689117,293.955078 293.955780,293.445557 
	C295.257690,293.152924 296.920654,294.466644 299.569031,295.509094 
	C297.360962,290.415619 293.941467,289.449127 290.908661,290.536835 
	C288.312012,291.468079 285.515015,293.889160 284.391449,296.369293 
	C282.932343,299.590057 283.850708,303.378265 287.132660,305.671417 
	C290.671814,308.144226 294.306519,307.717133 298.326904,304.784912 
M337.252838,297.121460 
	C336.362274,292.165558 333.064209,290.040283 328.385681,290.279999 
	C324.385773,290.484924 321.562317,292.622894 320.752869,296.848663 
	C319.736786,302.153259 322.533234,306.448090 327.484222,307.129272 
	C333.613251,307.972565 336.914948,304.875427 337.252838,297.121460 
M219.513626,303.575867 
	C218.656219,300.724060 220.129593,300.113251 222.609772,300.126007 
	C224.705505,300.136749 226.802963,299.812775 228.899658,299.636963 
	C228.883789,299.098877 228.867920,298.560791 228.852051,298.022736 
	C226.661179,297.847382 224.418472,297.895966 222.300568,297.405487 
	C221.184296,297.147003 220.285904,295.947662 219.289124,295.173126 
	C220.355377,294.493439 221.348419,293.440582 222.503555,293.213928 
	C224.723297,292.778412 227.034882,292.811096 229.308380,292.649597 
	C229.252869,291.871063 229.197357,291.092529 229.141846,290.313995 
	C224.951569,290.725250 220.761292,291.136536 216.571014,291.547791 
	C216.646820,296.452881 216.722626,301.357971 216.798416,306.263092 
	C220.914978,306.519501 225.031540,306.775909 229.148102,307.032349 
	C229.207687,306.257233 229.267288,305.482117 229.326874,304.707031 
	C226.334442,304.491119 223.342026,304.275208 219.513626,303.575867 
M102.052811,293.129303 
	C103.472275,292.947418 104.891747,292.765533 106.311211,292.583618 
	C106.282631,291.929871 106.254051,291.276123 106.225471,290.622375 
	C102.546638,290.622375 98.422318,289.559235 95.292984,290.870575 
	C90.551033,292.857605 93.754494,297.909332 93.249466,301.556549 
	C93.017090,303.234711 94.237404,306.532013 95.221703,306.706177 
	C98.785812,307.336792 102.529144,306.954559 106.204834,306.954559 
	C106.243523,306.215027 106.282211,305.475494 106.320908,304.735962 
	C103.788841,304.560944 101.236397,304.519653 98.735718,304.138641 
	C97.856476,304.004669 97.104111,303.037842 96.293823,302.451324 
	C97.119461,301.693634 97.854248,300.448853 98.788719,300.274597 
	C101.080116,299.847168 103.463585,299.913452 105.810013,299.781067 
	C105.838898,299.212555 105.867783,298.644043 105.896660,298.075531 
	C103.633965,297.881042 101.335526,297.862762 99.124329,297.414337 
	C98.089943,297.204559 97.224106,296.163696 96.281876,295.499512 
	C97.241402,294.712280 98.134300,293.812561 99.189857,293.187469 
	C99.684067,292.894806 100.492279,293.132355 102.052811,293.129303 
M266.335815,303.025116 
	C268.754547,304.328461 271.173309,305.631805 273.592041,306.935150 
	C273.934875,306.689697 274.277710,306.444275 274.620544,306.198853 
	C271.823669,300.778198 269.026764,295.357544 266.229889,289.936890 
	C265.696716,289.935242 265.163544,289.933624 264.630371,289.931976 
	C261.812347,295.380951 258.994324,300.829956 256.176300,306.278931 
	C256.576721,306.385437 256.977142,306.491913 257.377533,306.598419 
	C260.079803,305.407074 262.782074,304.215759 266.335815,303.025116 
M129.839111,292.539764 
	C131.475464,294.562439 133.111816,296.585083 134.736084,298.592834 
	C132.739532,301.179535 130.891235,303.574188 129.042953,305.968811 
	C129.535278,306.403778 130.027618,306.838776 130.519958,307.273743 
	C132.733490,305.327332 134.947006,303.380951 137.097244,301.490173 
	C139.403946,303.614563 141.451233,305.500031 143.498520,307.385529 
	C144.013687,306.869080 144.528854,306.352631 145.044022,305.836212 
	C143.123993,303.374969 141.203949,300.913696 139.427795,298.636902 
	C141.356491,296.073059 143.026016,293.853760 144.695526,291.634430 
	C144.277405,291.226562 143.859283,290.818695 143.441177,290.410828 
	C141.333130,292.181763 139.225098,293.952698 136.883148,295.920135 
	C135.619949,294.598450 134.535950,293.084717 133.090393,292.103912 
	C132.309174,291.573853 130.910217,291.954224 129.839111,292.539764 
M439.050537,293.088165 
	C439.670166,292.690613 440.289795,292.293030 440.909393,291.895447 
	C440.314453,291.454437 439.731750,290.652527 439.122559,290.631897 
	C435.551544,290.510895 431.974396,290.572449 427.996002,290.572449 
	C427.996002,295.690369 427.899506,299.983978 428.074249,304.266510 
	C428.110901,305.165070 429.100098,306.741730 429.727966,306.781525 
	C433.485443,307.019592 437.265594,306.899475 441.038116,306.899475 
	C441.051208,306.210968 441.064270,305.522461 441.077332,304.833984 
	C437.824402,304.519135 434.571472,304.204285 431.142487,303.872406 
	C431.142487,302.869049 430.980560,301.423309 431.166626,301.377045 
	C434.274048,300.604462 437.424988,300.006836 440.614471,299.360474 
	C439.049561,294.831268 430.893677,301.102661 431.099823,293.107910 
	C433.893829,293.107910 436.033081,293.107910 439.050537,293.088165 
M388.699219,306.554321 
	C387.804016,305.793518 386.985107,304.523407 385.998047,304.375519 
	C383.788452,304.044403 381.495148,304.271881 378.836945,304.271881 
	C379.687805,296.787964 386.557434,302.670624 388.889221,298.152649 
	C385.530273,297.798126 382.437836,297.471710 378.858185,297.093872 
	C379.510254,289.569885 387.042603,295.816650 389.323761,291.080444 
	C384.701324,291.080444 380.508209,291.080444 375.979004,291.080444 
	C375.979004,292.932770 375.986603,294.242249 375.977814,295.551636 
	C375.898743,307.311401 375.897888,307.311401 388.699219,306.554321 
M110.331741,292.584625 
	C110.311333,294.416809 110.289040,296.248993 110.270889,298.081207 
	C110.229416,302.267609 111.446808,305.822113 115.919373,306.949097 
	C119.558708,307.866119 122.902672,307.102264 125.022835,303.546997 
	C126.855873,300.473206 126.388306,293.168335 123.329239,289.960297 
	C123.164024,293.306335 122.991646,295.793854 122.930771,298.284119 
	C122.854645,301.398438 122.147995,304.077820 118.381935,304.188721 
	C114.556870,304.301422 113.717911,301.709503 113.722260,298.527924 
	C113.724762,296.695526 113.854050,294.843140 113.631737,293.035980 
	C113.382248,291.007904 112.541031,289.710724 110.331741,292.584625 
M186.678238,306.861481 
	C191.945999,302.916229 192.878448,296.721252 195.569992,291.439117 
	C194.966858,291.050476 194.363739,290.661835 193.760620,290.273193 
	C191.576706,293.878418 189.392792,297.483612 187.205307,301.094666 
	C183.732941,298.034332 184.033813,292.388397 179.561920,290.815613 
	C179.091537,291.134949 178.621155,291.454254 178.150772,291.773590 
	C180.783157,296.684113 183.415527,301.594635 186.678238,306.861481 
M163.950684,299.433838 
	C163.491455,300.011932 163.032227,300.590057 162.509277,301.248352 
	C156.370193,291.455933 156.370193,291.455933 153.480865,291.388519 
	C156.411896,296.988190 159.137955,302.196198 161.863998,307.404236 
	C162.421295,307.318512 162.978592,307.232788 163.535904,307.147064 
	C166.155853,301.989258 168.775818,296.831421 171.395767,291.673584 
	C170.713135,291.239288 170.030502,290.804993 169.347870,290.370697 
	C167.653107,293.163116 165.958359,295.955566 163.950684,299.433838 
M173.577255,297.689026 
	C173.577255,300.752930 173.577255,303.816803 173.577255,306.880707 
	C177.842316,303.529663 177.656952,293.248901 174.121307,290.333740 
	C173.915192,292.791962 173.746292,294.806244 173.577255,297.689026 
M86.111267,299.475433 
	C86.321754,302.000977 86.532242,304.526520 86.850220,308.341827 
	C90.682388,303.239685 90.430336,293.252045 86.497101,289.860901 
	C86.344048,293.315979 86.227654,295.943390 86.111267,299.475433 
z"/>
<path fill="#FFFDFD" opacity="1.000000" stroke="none" 
	d="
M46.691242,255.342102 
	C20.578522,237.437119 21.433092,200.015320 46.757236,183.274261 
	C61.828377,173.311172 78.095078,173.082413 93.380203,182.758316 
	C108.177811,192.125626 115.448006,206.179428 113.362518,223.923615 
	C110.035263,252.233185 83.484436,268.960693 56.373260,260.100769 
	C53.099857,259.031006 50.113064,257.084229 46.691242,255.342102 
M88.456818,206.080460 
	C82.303215,200.791000 76.565353,201.552567 70.196434,208.577530 
	C69.561462,207.793381 68.958885,207.004684 68.310349,206.255783 
	C64.890968,202.307281 60.358688,201.938919 55.994980,203.500214 
	C51.526749,205.098907 49.323112,208.928970 49.842655,213.798019 
	C50.083382,216.054092 50.279228,218.810623 51.623093,220.365875 
	C56.905483,226.479156 62.568779,232.272537 68.287979,237.987183 
	C68.986229,238.684875 71.492393,238.791077 72.121918,238.150513 
	C78.130638,232.036331 84.333923,226.029373 89.597046,219.300018 
	C92.454559,215.646408 91.857117,210.765884 88.456818,206.080460 
z"/>
<path fill="#FFFDFD" opacity="1.000000" stroke="none" 
	d="
M143.760284,241.019165 
	C143.760254,246.814011 143.760254,252.112640 143.760254,257.701752 
	C136.732956,257.701752 130.167923,257.701752 123.319290,257.701752 
	C123.319290,231.181015 123.319290,204.776657 123.319290,178.429352 
	C137.388733,178.429352 151.386627,177.506287 165.195557,178.724899 
	C176.011002,179.679337 183.077698,187.238083 185.950882,197.820450 
	C188.860519,208.537109 186.692764,218.276505 178.965530,226.521561 
	C177.958054,227.596542 176.817932,228.547211 175.549118,229.733200 
	C181.074692,238.839783 186.527161,247.825897 192.698822,257.997284 
	C183.840073,257.997284 176.890823,258.134827 169.956924,257.870087 
	C168.713974,257.822632 167.165054,256.348022 166.392090,255.129715 
	C163.629120,250.774719 160.651108,246.452179 158.662842,241.734528 
	C155.824753,235.000473 151.298157,232.881180 143.760315,235.098328 
	C143.760315,236.655029 143.760315,238.588989 143.760284,241.019165 
M166.444153,203.273026 
	C164.331924,200.967010 162.518936,197.160248 160.045258,196.666977 
	C154.877609,195.636566 149.361221,196.354950 144.013885,196.354950 
	C144.013885,203.092133 144.013885,209.328857 144.013885,216.069916 
	C147.862686,216.069916 151.465881,216.075760 155.069046,216.068741 
	C163.861069,216.051620 166.935623,212.855499 166.444153,203.273026 
z"/>
<path fill="#FFFEFE" opacity="1.000000" stroke="none" 
	d="
M333.093689,177.269287 
	C336.962250,176.703308 339.419922,178.126236 341.854980,180.561203 
	C352.694733,191.400528 363.716675,202.057755 374.687561,212.765656 
	C375.821106,213.872009 377.052917,214.877716 378.903259,216.519318 
	C378.903259,203.242142 378.903259,190.846054 378.903259,178.097855 
	C386.036865,178.097855 392.745331,178.097855 399.729614,178.097855 
	C399.729614,204.610397 399.729614,231.030685 399.729614,257.706116 
	C395.404114,258.766327 392.063202,257.883972 388.729462,254.490997 
	C378.221130,243.795807 367.356445,233.450592 356.619446,222.980453 
	C355.459351,221.849213 354.232513,220.786469 352.284943,219.003983 
	C352.284943,232.412796 352.284943,244.932770 352.284943,257.721741 
	C344.994904,257.721741 338.256470,257.721741 331.172821,257.721741 
	C331.098663,256.170837 330.969940,254.723679 330.969177,253.276474 
	C330.956665,229.614304 330.925964,205.951996 331.033569,182.290314 
	C331.041199,180.619537 332.094879,178.953522 333.093689,177.269287 
z"/>
<path fill="#FFFCFD" opacity="1.000000" stroke="none" 
	d="
M307.455872,225.485519 
	C312.371338,236.179199 317.101257,246.543716 322.324615,257.989441 
	C314.812256,257.989441 308.704132,258.315796 302.677765,257.758545 
	C301.182770,257.620331 299.468384,254.812866 298.703796,252.894073 
	C297.225708,249.184448 295.173401,247.608170 290.944153,247.847672 
	C283.638947,248.261398 276.289429,248.101578 268.966583,247.895660 
	C265.931793,247.810303 263.736633,248.384155 262.985291,251.590759 
	C261.692963,257.106323 258.248230,258.781219 252.776306,258.104767 
	C248.693466,257.600037 244.498138,258.005280 239.574631,258.005280 
	C240.186386,255.685165 240.410782,253.756424 241.180328,252.077560 
	C252.198685,228.040054 263.368805,204.071686 274.271362,179.982101 
	C275.724182,176.772064 277.788300,176.751740 280.559540,176.615799 
	C283.603729,176.466492 285.315247,177.328903 286.640015,180.280914 
	C293.380341,195.300629 300.368774,210.208984 307.455872,225.485519 
M285.144714,220.320145 
	C283.669037,216.990204 282.193359,213.660278 280.309265,209.408798 
	C277.146149,216.826050 274.425049,223.206772 271.539520,229.973053 
	C277.920563,229.973053 283.313477,229.973053 289.378784,229.973053 
	C287.941711,226.683151 286.703033,223.847473 285.144714,220.320145 
z"/>
<path fill="#FFFDFE" opacity="1.000000" stroke="none" 
	d="
M448.082581,239.791946 
	C455.869385,239.791946 463.164429,239.791946 470.772766,239.791946 
	C470.772766,245.900314 470.772766,251.636368 470.772766,257.689728 
	C454.040222,257.689728 437.320068,257.689728 420.278229,257.689728 
	C420.278229,231.301620 420.278229,204.922272 420.278229,178.139954 
	C436.592834,178.139954 452.965759,178.139954 469.703857,178.139954 
	C469.703857,183.740097 469.703857,189.492920 469.703857,195.945465 
	C460.220673,195.945465 450.516724,195.945465 440.615814,195.945465 
	C440.615814,199.932220 440.615814,203.224960 440.615814,207.081848 
	C449.447083,207.081848 458.195190,207.081848 467.366882,207.081848 
	C467.366882,213.478271 467.366882,219.325378 467.366882,225.730347 
	C458.522980,225.730347 449.783478,225.730347 441.175323,225.730347 
	C438.617065,237.846024 439.553589,239.783249 448.082581,239.791946 
z"/>
<path fill="#FFFBFC" opacity="1.000000" stroke="none" 
	d="
M206.410980,231.962997 
	C206.410995,219.833847 206.410995,208.198318 206.410995,196.134827 
	C203.260773,195.889389 200.382782,195.665161 197.288132,195.424057 
	C197.288132,189.549744 197.288132,183.947815 197.288132,178.036591 
	C210.087891,178.036591 222.834824,178.036591 235.891174,178.036591 
	C235.891174,183.815903 235.891174,189.521713 235.891174,195.597534 
	C232.977905,195.597534 230.362152,195.597534 227.329559,195.597534 
	C227.329559,210.465759 227.329559,224.970901 227.329559,239.974243 
	C230.421844,239.974243 233.489700,239.974243 236.779083,239.974243 
	C236.779083,246.064865 236.779083,251.667358 236.779083,257.640076 
	C223.446426,257.640076 210.092163,257.640076 196.455444,257.640076 
	C196.455444,251.940155 196.455444,246.353973 196.455444,240.220825 
	C199.511551,240.220825 202.581543,240.220825 206.410950,240.220825 
	C206.410950,237.292267 206.410950,234.874435 206.410980,231.962997 
z"/>
<path fill="#FDEEF4" opacity="1.000000" stroke="none" 
	d="
M75.708847,296.536438 
	C77.319618,294.263489 78.740303,292.300964 80.160988,290.338440 
	C80.677719,290.593658 81.194458,290.848907 81.711189,291.104126 
	C82.003723,296.374115 82.507736,301.654480 81.470238,306.859009 
	C80.813538,306.884766 80.156837,306.910522 79.500130,306.936310 
	C79.202538,304.333832 78.904938,301.731354 78.542145,298.558777 
	C76.912010,300.496765 75.512482,302.160614 73.768288,304.234192 
	C72.179962,302.382538 70.855156,300.838074 69.314728,299.042267 
	C68.788963,301.983551 68.339638,304.497192 67.890320,307.010864 
	C67.341232,306.955627 66.792137,306.900421 66.243050,306.845215 
	C66.243050,301.555756 66.243050,296.266296 66.243050,290.976807 
	C66.626266,290.741943 67.009476,290.507080 67.392693,290.272217 
	C69.396736,293.099701 71.400787,295.927155 73.588745,299.014099 
	C74.287354,298.229614 74.903053,297.538269 75.708847,296.536438 
z"/>
<path fill="#FDE8EF" opacity="1.000000" stroke="none" 
	d="
M423.162598,305.244751 
	C416.298859,308.771973 411.551971,307.711060 408.977631,301.604767 
	C413.212006,302.304565 417.066315,306.921204 421.914642,301.680969 
	C419.420502,301.008698 417.602539,300.377167 415.731415,300.046631 
	C412.711121,299.513123 409.194427,299.135498 409.382080,295.212921 
	C409.570374,291.277405 413.184326,290.116180 416.351837,290.350128 
	C419.059326,290.550140 421.661072,292.181702 424.063263,294.005188 
	C420.247803,296.038116 416.378998,290.215576 412.241089,296.122650 
	C415.093536,296.719818 417.435913,297.195160 419.771423,297.702271 
	C424.532043,298.735840 425.328522,300.331146 423.162598,305.244751 
z"/>
<path fill="#FCE6EE" opacity="1.000000" stroke="none" 
	d="
M402.802185,300.854187 
	C400.005585,300.206635 397.240021,300.299652 395.257050,299.099518 
	C393.765961,298.197083 393.279358,295.634979 392.345612,293.811676 
	C394.908356,292.604248 397.387177,290.704590 400.057098,290.380798 
	C402.822937,290.045349 405.834229,291.158081 406.831421,295.277527 
	C402.799774,295.153198 399.247131,290.803864 394.853424,296.044250 
	C397.715881,296.662476 399.882629,297.179077 402.069183,297.590363 
	C404.810577,298.106049 408.000763,298.904663 407.041626,302.277618 
	C406.487701,304.225708 403.806793,306.376495 401.695099,306.915466 
	C396.378448,308.272339 393.359558,306.414032 391.944061,301.019379 
	C393.763245,302.096039 394.842285,302.733124 395.919861,303.372681 
	C399.461792,305.474854 403.001221,304.335968 402.802185,300.854187 
z"/>
<path fill="#FCE6EE" opacity="1.000000" stroke="none" 
	d="
M353.405884,292.202148 
	C353.823486,293.290955 353.966492,294.160126 354.109497,295.029266 
	C353.233521,294.888550 352.273132,294.932343 351.495605,294.576538 
	C347.166870,292.595673 346.933777,292.584351 342.851685,296.064667 
	C345.796936,296.690338 348.244720,296.770081 350.240631,297.760468 
	C352.162567,298.714203 353.617432,300.609131 355.277527,302.090546 
	C353.511993,303.745667 351.997589,306.308838 349.932251,306.880005 
	C344.458435,308.393799 340.975464,306.262817 340.397675,301.496429 
	C344.238159,302.928131 348.023254,306.679840 352.855164,301.425140 
	C349.990173,300.819885 348.029846,300.367523 346.054108,299.997437 
	C343.213531,299.465332 339.614929,298.853394 340.328094,295.332062 
	C340.729797,293.348419 343.825500,291.156830 346.110443,290.532043 
	C348.164917,289.970276 350.769409,291.420013 353.405884,292.202148 
z"/>
<path fill="#FCE6EE" opacity="1.000000" stroke="none" 
	d="
M241.045197,297.911652 
	C238.779709,293.542664 241.223175,291.800964 244.562897,290.701782 
	C249.174469,289.184021 252.856583,290.815521 254.419647,295.193268 
	C250.820633,295.354584 247.012756,290.492157 243.061783,296.159302 
	C246.087051,296.780701 248.704941,296.924072 250.953690,297.909668 
	C252.640701,298.649078 255.148438,300.664093 254.984344,301.768524 
	C254.712799,303.596344 252.914932,305.931488 251.174194,306.668152 
	C246.117172,308.808197 241.452194,306.633575 240.051773,301.516083 
	C244.094894,302.395081 247.914642,306.980408 252.549728,301.727417 
	C248.473816,300.445648 244.892578,299.319427 241.045197,297.911652 
z"/>
<path fill="#FDE8EF" opacity="1.000000" stroke="none" 
	d="
M368.793457,301.303223 
	C366.082764,300.489838 363.518280,300.321381 361.272919,299.386444 
	C359.818695,298.780914 357.854492,297.038025 357.875732,295.835846 
	C357.903687,294.255402 359.302002,292.097137 360.737335,291.255493 
	C365.203125,288.636932 370.465759,290.615417 371.840881,295.398926 
	C368.209473,294.717896 364.675262,291.104797 360.068298,295.999420 
	C363.089508,296.650238 365.263824,297.168335 367.458282,297.578674 
	C370.191254,298.089722 373.536957,298.876251 372.625092,302.161804 
	C372.060883,304.194794 369.064575,306.394806 366.789734,306.921906 
	C362.983154,307.803955 358.923279,307.328705 357.168457,302.080811 
	C361.486542,301.327698 365.665222,308.468201 368.793457,301.303223 
z"/>
<path fill="#FDEEF4" opacity="1.000000" stroke="none" 
	d="
M315.171509,301.103699 
	C315.858551,302.950714 316.781372,304.516968 317.704224,306.083221 
	C317.416229,306.379303 317.128235,306.675354 316.840240,306.971436 
	C313.936188,305.023987 311.032135,303.076508 307.803375,300.911316 
	C306.962646,303.748749 306.481476,305.372681 306.000336,306.996613 
	C305.517731,306.970398 305.035126,306.944183 304.552521,306.917969 
	C302.836548,301.778473 304.006592,296.428833 303.856445,290.677612 
	C308.828430,290.687164 313.694580,289.042450 317.075653,293.479584 
	C319.127106,296.171814 317.899933,298.806671 315.171509,301.103699 
M307.040985,298.268463 
	C309.337677,298.154602 311.648956,298.140808 313.914124,297.810699 
	C314.226105,297.765259 314.610260,295.437256 314.452911,295.370911 
	C312.464996,294.532715 310.389374,293.897308 308.318604,293.267639 
	C308.082855,293.195953 307.741028,293.472931 307.140442,293.709595 
	C307.065399,294.854462 306.981750,296.130554 307.040985,298.268463 
z"/>
<path fill="#FDEEF4" opacity="1.000000" stroke="none" 
	d="
M210.934006,306.824158 
	C208.200851,304.830414 205.811920,302.895020 203.023346,300.635834 
	C201.984818,303.659973 201.405045,305.348206 200.825287,307.036438 
	C200.289948,306.963226 199.754608,306.889984 199.219269,306.816772 
	C199.219269,301.643585 199.219269,296.470367 199.219269,291.297180 
	C203.163849,291.586792 207.554413,290.901886 210.925537,292.444641 
	C214.189697,293.938416 213.710526,297.671936 210.906128,300.355988 
	C210.555801,300.691315 210.247116,301.070129 210.747055,300.523438 
	C210.970428,303.197571 211.124344,305.040039 210.934006,306.824158 
M209.512482,297.227539 
	C209.170334,291.419250 205.283783,293.524384 201.847168,293.519958 
	C201.944244,295.530396 202.020676,297.113190 202.134140,299.463104 
	C204.733963,298.857452 206.872452,298.359283 209.512482,297.227539 
z"/>
<path fill="#FDEBF2" opacity="1.000000" stroke="none" 
	d="
M298.044647,305.024750 
	C294.306519,307.717133 290.671814,308.144226 287.132660,305.671417 
	C283.850708,303.378265 282.932343,299.590057 284.391449,296.369293 
	C285.515015,293.889160 288.312012,291.468079 290.908661,290.536835 
	C293.941467,289.449127 297.360962,290.415619 299.569031,295.509094 
	C296.920654,294.466644 295.257690,293.152924 293.955780,293.445557 
	C291.689117,293.955078 288.238281,295.098236 287.850189,296.627197 
	C287.319031,298.719757 288.511963,302.213501 290.203186,303.652313 
	C292.130859,305.292267 295.259003,304.965637 296.293457,300.899078 
	C294.562195,300.373993 292.988098,299.896576 291.414032,299.419159 
	C291.401184,298.967560 291.388367,298.515991 291.375549,298.064392 
	C293.734619,297.833832 296.093689,297.603302 299.565979,297.263947 
	C299.075134,300.243225 298.701019,302.514069 298.044647,305.024750 
z"/>
<path fill="#FDEAF1" opacity="1.000000" stroke="none" 
	d="
M337.308105,297.491821 
	C336.914948,304.875427 333.613251,307.972565 327.484222,307.129272 
	C322.533234,306.448090 319.736786,302.153259 320.752869,296.848663 
	C321.562317,292.622894 324.385773,290.484924 328.385681,290.279999 
	C333.064209,290.040283 336.362274,292.165558 337.308105,297.491821 
M325.710754,294.287842 
	C325.107391,295.610687 324.118835,296.893402 323.976044,298.264221 
	C323.612274,301.756958 325.104553,304.217590 328.915161,304.273987 
	C332.708557,304.330109 334.227966,301.979370 334.096527,298.429565 
	C333.939117,294.177124 331.320129,292.658386 325.710754,294.287842 
z"/>
<path fill="#FDEEF4" opacity="1.000000" stroke="none" 
	d="
M219.931610,303.817566 
	C223.342026,304.275208 226.334442,304.491119 229.326874,304.707031 
	C229.267288,305.482117 229.207687,306.257233 229.148102,307.032349 
	C225.031540,306.775909 220.914978,306.519501 216.798416,306.263062 
	C216.722626,301.357971 216.646820,296.452881 216.571014,291.547791 
	C220.761292,291.136536 224.951569,290.725250 229.141846,290.313995 
	C229.197357,291.092529 229.252869,291.871063 229.308380,292.649597 
	C227.034882,292.811096 224.723297,292.778412 222.503555,293.213928 
	C221.348419,293.440582 220.355377,294.493439 219.289124,295.173126 
	C220.285904,295.947662 221.184296,297.147003 222.300568,297.405487 
	C224.418472,297.895966 226.661179,297.847382 228.852051,298.022736 
	C228.867920,298.560791 228.883789,299.098877 228.899658,299.636963 
	C226.802963,299.812775 224.705505,300.136749 222.609772,300.126007 
	C220.129593,300.113251 218.656219,300.724060 219.931610,303.817566 
z"/>
<path fill="#FDEEF4" opacity="1.000000" stroke="none" 
	d="
M101.605499,293.129456 
	C100.492279,293.132355 99.684067,292.894806 99.189857,293.187469 
	C98.134300,293.812561 97.241402,294.712280 96.281876,295.499512 
	C97.224106,296.163696 98.089943,297.204559 99.124329,297.414337 
	C101.335526,297.862762 103.633965,297.881042 105.896660,298.075531 
	C105.867783,298.644043 105.838898,299.212555 105.810013,299.781067 
	C103.463585,299.913452 101.080116,299.847168 98.788719,300.274597 
	C97.854248,300.448853 97.119461,301.693634 96.293823,302.451324 
	C97.104111,303.037842 97.856476,304.004669 98.735718,304.138641 
	C101.236397,304.519653 103.788841,304.560944 106.320908,304.735962 
	C106.282211,305.475494 106.243523,306.215027 106.204834,306.954559 
	C102.529144,306.954559 98.785812,307.336792 95.221703,306.706177 
	C94.237404,306.532013 93.017090,303.234711 93.249466,301.556549 
	C93.754494,297.909332 90.551033,292.857605 95.292984,290.870575 
	C98.422318,289.559235 102.546638,290.622375 106.225471,290.622375 
	C106.254051,291.276123 106.282631,291.929871 106.311211,292.583618 
	C104.891747,292.765533 103.472275,292.947418 101.605499,293.129456 
z"/>
<path fill="#FCE6EE" opacity="1.000000" stroke="none" 
	d="
M265.910065,303.024780 
	C262.782074,304.215759 260.079803,305.407074 257.377533,306.598419 
	C256.977142,306.491913 256.576721,306.385437 256.176300,306.278931 
	C258.994324,300.829956 261.812347,295.380951 264.630371,289.931976 
	C265.163544,289.933624 265.696716,289.935242 266.229889,289.936890 
	C269.026764,295.357544 271.823669,300.778198 274.620544,306.198853 
	C274.277710,306.444275 273.934875,306.689697 273.592041,306.935150 
	C271.173309,305.631805 268.754547,304.328461 265.910065,303.024780 
z"/>
<path fill="#FDEAF1" opacity="1.000000" stroke="none" 
	d="
M129.814545,292.231812 
	C130.910217,291.954224 132.309174,291.573853 133.090393,292.103912 
	C134.535950,293.084717 135.619949,294.598450 136.883148,295.920135 
	C139.225098,293.952698 141.333130,292.181763 143.441177,290.410828 
	C143.859283,290.818695 144.277405,291.226562 144.695526,291.634430 
	C143.026016,293.853760 141.356491,296.073059 139.427795,298.636902 
	C141.203949,300.913696 143.123993,303.374969 145.044022,305.836212 
	C144.528854,306.352631 144.013687,306.869080 143.498520,307.385529 
	C141.451233,305.500031 139.403946,303.614563 137.097244,301.490173 
	C134.947006,303.380951 132.733490,305.327332 130.519958,307.273743 
	C130.027618,306.838776 129.535278,306.403778 129.042953,305.968811 
	C130.891235,303.574188 132.739532,301.179535 134.736084,298.592834 
	C133.111816,296.585083 131.475464,294.562439 129.814545,292.231812 
z"/>
<path fill="#FEF5F8" opacity="1.000000" stroke="none" 
	d="
M438.611450,293.098022 
	C436.033081,293.107910 433.893829,293.107910 431.099823,293.107910 
	C430.893677,301.102661 439.049561,294.831268 440.614471,299.360474 
	C437.424988,300.006836 434.274048,300.604462 431.166626,301.377045 
	C430.980560,301.423309 431.142487,302.869049 431.142487,303.872406 
	C434.571472,304.204285 437.824402,304.519135 441.077332,304.833984 
	C441.064270,305.522461 441.051208,306.210968 441.038116,306.899475 
	C437.265594,306.899475 433.485443,307.019592 429.727966,306.781525 
	C429.100098,306.741730 428.110901,305.165070 428.074249,304.266510 
	C427.899506,299.983978 427.996002,295.690369 427.996002,290.572449 
	C431.974396,290.572449 435.551544,290.510895 439.122559,290.631897 
	C439.731750,290.652527 440.314453,291.454437 440.909393,291.895447 
	C440.289795,292.293030 439.670166,292.690613 438.611450,293.098022 
z"/>
<path fill="#FEF5F8" opacity="1.000000" stroke="none" 
	d="
M388.293701,306.735718 
	C375.897888,307.311401 375.898743,307.311401 375.977814,295.551636 
	C375.986603,294.242249 375.979004,292.932770 375.979004,291.080444 
	C380.508209,291.080444 384.701324,291.080444 389.323761,291.080444 
	C387.042603,295.816650 379.510254,289.569885 378.858185,297.093872 
	C382.437836,297.471710 385.530273,297.798126 388.889221,298.152649 
	C386.557434,302.670624 379.687805,296.787964 378.836945,304.271881 
	C381.495148,304.271881 383.788452,304.044403 385.998047,304.375519 
	C386.985107,304.523407 387.804016,305.793518 388.293701,306.735718 
z"/>
<path fill="#FDE8EF" opacity="1.000000" stroke="none" 
	d="
M110.437836,292.218811 
	C112.541031,289.710724 113.382248,291.007904 113.631737,293.035980 
	C113.854050,294.843140 113.724762,296.695526 113.722260,298.527924 
	C113.717911,301.709503 114.556870,304.301422 118.381935,304.188721 
	C122.147995,304.077820 122.854645,301.398438 122.930771,298.284119 
	C122.991646,295.793854 123.164024,293.306335 123.329239,289.960297 
	C126.388306,293.168335 126.855873,300.473206 125.022835,303.546997 
	C122.902672,307.102264 119.558708,307.866119 115.919373,306.949097 
	C111.446808,305.822113 110.229416,302.267609 110.270889,298.081207 
	C110.289040,296.248993 110.311333,294.416809 110.437836,292.218811 
z"/>
<path fill="#FDEEF3" opacity="1.000000" stroke="none" 
	d="
M186.363068,306.683319 
	C183.415527,301.594635 180.783157,296.684113 178.150772,291.773590 
	C178.621155,291.454254 179.091537,291.134949 179.561920,290.815613 
	C184.033813,292.388397 183.732941,298.034332 187.205307,301.094666 
	C189.392792,297.483612 191.576706,293.878418 193.760620,290.273193 
	C194.363739,290.661835 194.966858,291.050476 195.569992,291.439117 
	C192.878448,296.721252 191.945999,302.916229 186.363068,306.683319 
z"/>
<path fill="#FDEEF3" opacity="1.000000" stroke="none" 
	d="
M164.107147,299.090912 
	C165.958359,295.955566 167.653107,293.163116 169.347870,290.370697 
	C170.030502,290.804993 170.713135,291.239288 171.395767,291.673584 
	C168.775818,296.831421 166.155853,301.989258 163.535904,307.147064 
	C162.978592,307.232788 162.421295,307.318512 161.863998,307.404236 
	C159.137955,302.196198 156.411896,296.988190 153.480865,291.388519 
	C156.370193,291.455933 156.370193,291.455933 162.509277,301.248352 
	C163.032227,300.590057 163.491455,300.011932 164.107147,299.090912 
z"/>
<path fill="#FDE8EF" opacity="1.000000" stroke="none" 
	d="
M173.577316,297.254791 
	C173.746292,294.806244 173.915192,292.791962 174.121307,290.333740 
	C177.656952,293.248901 177.842316,303.529663 173.577255,306.880707 
	C173.577255,303.816803 173.577255,300.752930 173.577316,297.254791 
z"/>
<path fill="#FACFDE" opacity="1.000000" stroke="none" 
	d="
M86.111267,299.023132 
	C86.227654,295.943390 86.344048,293.315979 86.497101,289.860901 
	C90.430336,293.252045 90.682388,303.239685 86.850220,308.341827 
	C86.532242,304.526520 86.321754,302.000977 86.111267,299.023132 
z"/>
<path fill="#E82269" opacity="1.000000" stroke="none" 
	d="
M88.709000,206.381104 
	C91.857117,210.765884 92.454559,215.646408 89.597046,219.300018 
	C84.333923,226.029373 78.130638,232.036331 72.121918,238.150513 
	C71.492393,238.791077 68.986229,238.684875 68.287979,237.987183 
	C62.568779,232.272537 56.905483,226.479156 51.623093,220.365875 
	C50.279228,218.810623 50.083382,216.054092 49.842655,213.798019 
	C49.323112,208.928970 51.526749,205.098907 55.994980,203.500214 
	C60.358688,201.938919 64.890968,202.307281 68.310349,206.255783 
	C68.958885,207.004684 69.561462,207.793381 70.196434,208.577530 
	C76.565353,201.552567 82.303215,200.791000 88.709000,206.381104 
z"/>
<path fill="#E82269" opacity="1.000000" stroke="none" 
	d="
M166.548767,203.654785 
	C166.935623,212.855499 163.861069,216.051620 155.069046,216.068741 
	C151.465881,216.075760 147.862686,216.069916 144.013885,216.069916 
	C144.013885,209.328857 144.013885,203.092133 144.013885,196.354950 
	C149.361221,196.354950 154.877609,195.636566 160.045258,196.666977 
	C162.518936,197.160248 164.331924,200.967010 166.548767,203.654785 
z"/>
<path fill="#E9256B" opacity="1.000000" stroke="none" 
	d="
M285.304535,220.665970 
	C286.703033,223.847473 287.941711,226.683151 289.378784,229.973053 
	C283.313477,229.973053 277.920563,229.973053 271.539520,229.973053 
	C274.425049,223.206772 277.146149,216.826050 280.309265,209.408798 
	C282.193359,213.660278 283.669037,216.990204 285.304535,220.665970 
z"/>
<path fill="#E92C70" opacity="1.000000" stroke="none" 
	d="
M306.969543,297.837585 
	C306.981750,296.130554 307.065399,294.854462 307.140442,293.709595 
	C307.741028,293.472931 308.082855,293.195953 308.318604,293.267639 
	C310.389374,293.897308 312.464996,294.532715 314.452911,295.370911 
	C314.610260,295.437256 314.226105,297.765259 313.914124,297.810699 
	C311.648956,298.140808 309.337677,298.154602 306.969543,297.837585 
z"/>
<path fill="#E92C70" opacity="1.000000" stroke="none" 
	d="
M209.261719,297.544312 
	C206.872452,298.359283 204.733963,298.857452 202.134140,299.463104 
	C202.020676,297.113190 201.944244,295.530396 201.847168,293.519958 
	C205.283783,293.524384 209.170334,291.419250 209.261719,297.544312 
z"/>
<path fill="#E9256B" opacity="1.000000" stroke="none" 
	d="
M326.045837,294.080078 
	C331.320129,292.658386 333.939117,294.177124 334.096527,298.429565 
	C334.227966,301.979370 332.708557,304.330109 328.915161,304.273987 
	C325.104553,304.217590 323.612274,301.756958 323.976044,298.264221 
	C324.118835,296.893402 325.107391,295.610687 326.045837,294.080078 
z"/>
</svg>